<?xml version="1.0" encoding="iso-8859-1"?>
<!-- Generator: Adobe Illustrator 19.0.0, SVG Export Plug-In . SVG Version: 6.00 Build 0)  -->
<svg version="1.1" id="Layer_1" xmlns="http://www.w3.org/2000/svg" xmlns:xlink="http://www.w3.org/1999/xlink" x="0px" y="0px"
	 viewBox="0 0 512.005 512.005" style="enable-background:new 0 0 512.005 512.005;" xml:space="preserve">
<g>
	<path style="fill:#DF5548;" d="M291.315,354.142v16.622c0,19.5-15.81,35.31-35.31,35.31c-19.5,0-35.31-15.81-35.31-35.31v-16.622
		c-79.439,8.792-141.241,76.076-141.241,157.864l0,0h353.103l0,0C432.556,430.218,370.754,362.934,291.315,354.142"/>
	<g>
		<path style="fill:#C9C3A7;" d="M326.625,450.21c-4.882,0-8.828-3.955-8.828-8.828v-79.448c0-4.873,3.946-8.828,8.828-8.828
			s8.828,3.955,8.828,8.828v79.448C335.453,446.255,331.507,450.21,326.625,450.21"/>
		<path style="fill:#C9C3A7;" d="M185.384,450.21c-4.882,0-8.828-3.955-8.828-8.828v-79.448c0-4.873,3.946-8.828,8.828-8.828
			c4.882,0,8.828,3.955,8.828,8.828v79.448C194.211,446.255,190.265,450.21,185.384,450.21"/>
	</g>
	<path style="fill:#F6935E;" d="M256.004,308.968c-12.562,0-24.488-2.666-35.31-7.398v69.191c0,19.5,15.81,35.31,35.31,35.31
		c19.5,0,35.31-15.81,35.31-35.31v-69.191C280.492,306.302,268.566,308.968,256.004,308.968"/>
	<path style="fill:#FEC24C;" d="M422.667,102.956c-38.788-22.007-73.163-50.467-105.825-80.834C302.294,8.607,280.455,0,256.003,0
		c-24.452,0-46.292,8.607-60.831,22.122c-32.671,30.367-67.046,58.827-105.834,80.834l-36.37,20.63h70.621h264.828h70.621
		L422.667,102.956z"/>
	<path style="fill:#FABA81;" d="M171.782,123.589c-2.631,8.36-4.052,17.258-4.052,26.483v70.621
		c0,48.755,39.521,88.276,88.276,88.276s88.276-39.521,88.276-88.276v-70.621c0-9.225-1.43-18.123-4.052-26.483H171.782z"/>
	<g>
		<path style="fill:#F6935E;" d="M353.108,158.899c-3.116,0-6.056,0.636-8.828,1.624v49.717c2.772,0.989,5.711,1.624,8.828,1.624
			c14.627,0,26.483-11.855,26.483-26.483S367.735,158.899,353.108,158.899"/>
		<path style="fill:#F6935E;" d="M158.901,211.865c3.116,0,6.056-0.636,8.828-1.624v-49.717c-2.772-0.989-5.711-1.624-8.828-1.624
			c-14.627,0-26.483,11.855-26.483,26.483S144.274,211.865,158.901,211.865"/>
	</g>
	<path style="fill:#4CAF50;" d="M335.453,97.106c-4.882,0-8.828-3.955-8.828-8.828c0-43.802,35.637-79.448,79.448-79.448
		c4.882,0,8.828,3.955,8.828,8.828s-3.946,8.828-8.828,8.828c-34.066,0-61.793,27.719-61.793,61.793
		C344.28,93.151,340.334,97.106,335.453,97.106"/>
	<path style="fill:#ECE8D8;" d="M353.108,512.003H158.901v-43.458c0-14.998,12.164-27.162,27.162-27.162h139.882
		c14.998,0,27.162,12.164,27.162,27.162V512.003z"/>
	<path style="fill:#C9C3A7;" d="M203.039,485.52c-4.873,0-8.819-3.946-8.828-8.819c-0.009-4.873,3.937-8.836,8.819-8.836
		l105.931-0.115h0.009c4.873,0,8.819,3.946,8.828,8.819c0.009,4.882-3.937,8.836-8.819,8.836l-105.931,0.115H203.039z"/>
</g>
<g>
</g>
<g>
</g>
<g>
</g>
<g>
</g>
<g>
</g>
<g>
</g>
<g>
</g>
<g>
</g>
<g>
</g>
<g>
</g>
<g>
</g>
<g>
</g>
<g>
</g>
<g>
</g>
<g>
</g>
</svg>
